<?xml version="1.0" encoding="UTF-8"?>
<svg version="1.1" xmlns="http://www.w3.org/2000/svg" width="2000" height="2000">
<path d="M0 0 C660 0 1320 0 2000 0 C2000 660 2000 1320 2000 2000 C1340 2000 680 2000 0 2000 C0 1340 0 680 0 0 Z " fill="#000000" transform="translate(0,0)"/>
<path d="M0 0 C1.48833847 -0.00010574 1.48833847 -0.00010574 3.00674438 -0.00021362 C18.88587744 0.04307727 33.7957586 0.93440878 49.125 5.4375 C50.18589844 5.74864746 51.24679687 6.05979492 52.33984375 6.38037109 C73.9211022 12.92910102 94.9845741 21.88365738 113.125 35.4375 C113.72634766 35.88625488 114.32769531 36.33500977 114.94726562 36.79736328 C122.6815485 42.62666043 130.0838808 48.78171568 137.125 55.4375 C137.93324219 56.19289063 138.74148438 56.94828125 139.57421875 57.7265625 C169.14872298 86.23322749 188.52088192 126.15192392 195.125 166.4375 C195.29862061 167.47358398 195.47224121 168.50966797 195.65112305 169.57714844 C196.21062646 174.13504019 196.34236244 178.61147133 196.3984375 183.19921875 C196.41743355 184.60241112 196.41743355 184.60241112 196.43681335 186.03395081 C196.91628538 230.03693342 189.22432143 271.82638086 163.125 308.4375 C162.67398926 309.07494141 162.22297852 309.71238281 161.75830078 310.36914062 C154.85940152 320.04114975 147.38120384 328.90367527 139.125 337.4375 C138.17367187 338.44876953 138.17367187 338.44876953 137.203125 339.48046875 C116.98508541 360.51685756 89.82462015 375.5771562 62.49227905 384.96191406 C60.6469507 385.59598213 58.80542686 386.24109024 56.96411133 386.88671875 C39.30509724 392.77423617 21.69620916 395.09348554 3.11816406 394.84912109 C0.22946098 394.81223776 -2.65795863 394.80810674 -5.546875 394.80859375 C-20.43812723 394.75398142 -34.7547591 393.69024285 -49.1875 389.75 C-50.16332031 389.48654785 -51.13914062 389.2230957 -52.14453125 388.95166016 C-74.49202136 382.76463531 -96.19031729 373.35785479 -114.875 359.4375 C-115.41350586 359.03740723 -115.95201172 358.63731445 -116.50683594 358.22509766 C-125.48195779 351.50512038 -133.76892739 344.17358589 -141.875 336.4375 C-142.85533203 335.53644531 -142.85533203 335.53644531 -143.85546875 334.6171875 C-173.99805378 306.12134702 -196.17133628 258.58127022 -197.97514343 217.13658142 C-198.02189258 214.74681013 -198.03972068 212.35897396 -198.04296875 209.96875 C-198.04629715 209.08956909 -198.04962555 208.21038818 -198.05305481 207.30456543 C-198.05808676 205.45239784 -198.0604643 203.6002213 -198.06030273 201.74804688 C-198.06247264 198.97249624 -198.08062288 196.19735472 -198.09960938 193.421875 C-198.14898813 178.36941605 -197.24128613 163.77689596 -193.25 149.1875 C-192.98985107 148.22279785 -192.72970215 147.2580957 -192.46166992 146.26416016 C-186.2278761 123.87659805 -176.65642395 102.24006291 -162.875 83.4375 C-162.10671875 82.385625 -161.3384375 81.33375 -160.546875 80.25 C-154.79814256 72.522177 -148.52130941 65.40030033 -141.875 58.4375 C-141.07449219 57.58414063 -140.27398438 56.73078125 -139.44921875 55.8515625 C-132.81386503 48.96643278 -125.56416061 43.08899184 -117.875 37.4375 C-117.30716797 37.02000488 -116.73933594 36.60250977 -116.15429688 36.17236328 C-95.50425399 21.23012501 -72.11124421 10.92685701 -47.5 4.5625 C-46.76499268 4.37115479 -46.02998535 4.17980957 -45.27270508 3.98266602 C-30.35330259 0.39346448 -15.2643277 -0.00781159 0 0 Z " fill="#F4BE1D" transform="translate(1000.875,802.5625)"/>
<path d="M0 0 C4.98014364 1.51189902 9.48393784 3.58172722 14.125 5.89453125 C14.90030563 6.27792664 15.67561127 6.66132202 16.47441101 7.05633545 C18.98606943 8.30222406 21.49364895 9.55597083 24 10.8125 C24.85824371 11.24239227 25.71648743 11.67228455 26.60073853 12.11520386 C55.6397303 26.69692494 83.48788971 43.80319338 109 64 C109.67595215 64.53463867 110.3519043 65.06927734 111.04833984 65.62011719 C118.415902 71.47547066 125.67094735 77.42434326 132.59375 83.8046875 C134.63206484 85.6643189 136.69545346 87.48270663 138.77734375 89.29296875 C154.34467592 102.88677311 169.15687566 117.39671581 182.04296875 133.58203125 C183.87357702 135.84380074 185.78051227 137.98425247 187.75 140.125 C203.02070381 157.15304671 215.82062058 176.69683262 228 196 C228.43634766 196.68578125 228.87269531 197.3715625 229.32226562 198.078125 C248.83353051 228.83365957 264.11999596 261.60257911 276 296 C276.35400879 297.02480469 276.70801758 298.04960938 277.07275391 299.10546875 C302.72986983 374.33102498 302.72986983 374.33102498 300 405 C298.72851562 406.71240234 298.72851562 406.71240234 296.90625 408.0859375 C296.21845459 408.61566162 295.53065918 409.14538574 294.82202148 409.69116211 C294.05575439 410.24682861 293.2894873 410.80249512 292.5 411.375 C291.69828369 411.97513916 290.89656738 412.57527832 290.07055664 413.19360352 C190.17012581 487 190.17012581 487 148 487 C147.87523622 481.62327537 148.25458644 476.8629182 149.3125 471.5625 C150.65848786 464.40323004 151.68527858 457.23124188 152.5625 450 C152.67698486 449.08420166 152.79146973 448.16840332 152.90942383 447.22485352 C155.33447786 426.72274893 156.40959934 406.26469384 156.375 385.625 C156.37478851 384.44388641 156.37457703 383.26277283 156.37435913 382.04586792 C156.33393317 359.18220843 154.8692189 336.67513367 152 314 C151.91041016 313.27713806 151.82082031 312.55427612 151.72851562 311.80950928 C146.70855888 271.51157411 136.31338512 231.9512105 122 194 C121.3814917 192.34508545 121.3814917 192.34508545 120.75048828 190.65673828 C111.74714317 166.68107451 101.34005462 143.27822705 88.99267578 120.82519531 C87.98102376 118.9651091 87.00044037 117.09145276 86.02734375 115.2109375 C78.38840931 100.49307997 69.29092966 86.71584346 60 73 C59.54447754 72.32372559 59.08895508 71.64745117 58.61962891 70.95068359 C53.05127752 62.69150772 47.36840655 54.670165 41 47 C40.30519531 46.13246094 39.61039063 45.26492188 38.89453125 44.37109375 C33.99763901 38.27814642 28.85503515 32.48500017 23.54296875 26.7578125 C21.55011761 24.59659452 19.60292215 22.41653031 17.6875 20.1875 C13.48594308 15.32362869 9.04181633 10.67905362 4.62182617 6.0144043 C4.0260376 5.38187744 3.43024902 4.74935059 2.81640625 4.09765625 C2.27443604 3.52539307 1.73246582 2.95312988 1.17407227 2.36352539 C0 1 0 1 0 0 Z " fill="#0049AC" transform="translate(1199,801)"/>
<path d="M0 0 C0.66 0 1.32 0 2 0 C3.68498619 2.28040936 5.25827215 4.56976522 6.8125 6.9375 C15.29540903 19.55554366 24.55156373 31.52180365 34.47265625 43.0390625 C36.77232728 45.73326751 38.98466362 48.47667481 41.1875 51.25 C50.66357593 62.84484643 61.34903975 73.43953104 71.88638306 84.06161499 C73.26770358 85.45481823 74.64502925 86.85197873 76.0222168 88.24926758 C81.26983545 93.50364552 86.68322736 98.35442567 92.49951172 102.97314453 C95.02659019 105.02155358 97.42415205 107.16726809 99.8125 109.375 C105.36389225 114.41933595 111.21389004 119.02137507 117.16113281 123.58496094 C118.91501507 124.93460267 120.65699081 126.29843869 122.3984375 127.6640625 C141.08585245 142.15010961 161.19178128 155.41780935 181.89355469 166.83056641 C183.9873514 167.99297789 186.06115981 169.18535609 188.1328125 170.38671875 C215.04711624 185.86956069 243.64114317 197.93057761 272.8125 208.4375 C274.48324585 209.03933105 274.48324585 209.03933105 276.18774414 209.65332031 C284.04333004 212.4292618 291.97235706 214.7775029 300 217 C301.42092917 217.40512438 302.84157255 217.81125219 304.26196289 218.21826172 C314.68649285 221.18819945 325.15491755 223.77752131 335.75 226.0625 C336.53738556 226.23364319 337.32477112 226.40478638 338.13601685 226.58111572 C352.57328023 229.69852197 366.98507498 231.89365178 381.65673828 233.59106445 C385.24490784 234.02995623 388.81795881 234.54166273 392.39453125 235.06640625 C411.37141683 237.81328577 430.85494088 237.49018637 450 238 C448.54355684 240.91288632 446.69036045 241.05684651 443.6640625 242.171875 C442.54684814 242.58598633 441.42963379 243.00009766 440.27856445 243.42675781 C438.47005005 244.0817627 438.47005005 244.0817627 436.625 244.75 C435.39289795 245.19956055 434.1607959 245.64912109 432.89135742 246.11230469 C397.79601542 258.81770119 360.89552114 267.64213518 323.75787354 271.69671631 C322.05292704 271.88420948 320.34848836 272.07647262 318.6449585 272.27642822 C301.95103543 274.22191493 285.2831784 274.37525381 268.5012207 274.37060547 C265.39844128 274.37044417 262.29626027 274.38416614 259.19360352 274.41162109 C219.46238097 274.75736399 180.75148705 269.62106607 142.1875 260 C141.3473233 259.79066833 140.50714661 259.58133667 139.64151001 259.36566162 C124.11915156 255.47274361 108.94239001 250.90128775 93.9375 245.3125 C92.78411133 244.88316162 91.63072266 244.45382324 90.44238281 244.01147461 C79.11094971 239.74234707 68.01202289 235.0315532 57 230 C56.05705078 229.57106445 55.11410156 229.14212891 54.14257812 228.70019531 C39.30657819 221.90665699 25.05874495 214.2768096 11 206 C9.7639502 205.27248535 9.7639502 205.27248535 8.50292969 204.53027344 C-8.34333335 194.5521553 -24.45690265 183.44221249 -39.97753906 171.50488281 C-41.9370118 169.99198766 -41.9370118 169.99198766 -43.92089844 168.86230469 C-45.6171875 167.7734375 -45.6171875 167.7734375 -48 165 C-48.3288111 161.22778398 -47.66176479 157.71018311 -47 154 C-46.73119038 152.01605389 -46.46560901 150.03166792 -46.203125 148.046875 C-44.19380917 134.51234609 -41.78070315 121.13935675 -38.65771484 107.81689453 C-38.2248752 105.96310691 -37.80048286 104.10732323 -37.38525391 102.24951172 C-31.70998486 76.87057266 -23.26402811 52.08152271 -13.1875 28.125 C-12.92717987 27.50495087 -12.66685974 26.88490173 -12.39865112 26.24606323 C-8.62199193 17.30712659 -4.4202805 8.63355288 0 0 Z " fill="#0049AC" transform="translate(549,1041)"/>
<path d="M0 0 C2.24679484 2.24679484 2.84900751 3.8522949 3.953125 6.8125 C4.32187744 7.79557129 4.69062988 8.77864258 5.07055664 9.79150391 C5.6543811 11.37970947 5.6543811 11.37970947 6.25 13 C6.65404053 14.0936084 7.05808105 15.1872168 7.47436523 16.31396484 C8.65911621 19.53926458 9.83213766 22.76855135 11 26 C11.28955566 26.79567383 11.57911133 27.59134766 11.87744141 28.41113281 C20.45509881 52.20580562 25.93321087 76.87612747 30.4074707 101.71972656 C30.7788302 103.7755923 31.15882977 105.82993653 31.55151367 107.88183594 C32.87628558 114.84929446 33.77441622 121.8281133 34.5625 128.875 C34.75102539 130.49728516 34.75102539 130.49728516 34.94335938 132.15234375 C36.27494953 143.85081642 37.15345886 155.47712144 37.203125 167.25390625 C37.21018463 168.38091949 37.21724426 169.50793274 37.22451782 170.6690979 C37.45240408 217.83750576 34.08425515 263.2479903 22 309 C21.63538565 310.43065049 21.27198751 311.86161184 20.91015625 313.29296875 C18.58757639 322.29413167 15.90297074 331.17123229 13 340 C12.69465332 340.93215332 12.38930664 341.86430664 12.07470703 342.82470703 C0.24600173 378.65451412 -15.3547009 412.79670777 -35 445 C-35.86987772 446.44656284 -36.73967662 447.89317308 -37.609375 449.33984375 C-46.52508785 464.01586986 -56.50579974 478.06615894 -67.109375 491.56640625 C-68.47602814 493.32554862 -69.76433479 495.14650219 -71 497 C-77.82699653 497.92283529 -84.70244377 497.10232067 -91.375 495.5625 C-94.38443419 494.91762125 -97.38535038 494.52064903 -100.4375 494.125 C-114.06288187 492.23135301 -127.46969917 489.02465084 -140.77392578 485.56835938 C-143.20784536 484.9469331 -145.64819942 484.35594258 -148.08984375 483.765625 C-179.34712485 476.08259698 -209.09838707 464.04827704 -238 450 C-234.45960086 446.11935471 -230.36205197 443.33380072 -226.0625 440.375 C-208.82570341 428.34362819 -192.31564998 415.25594071 -177.02734375 400.81640625 C-174.85419826 398.76690338 -172.62091656 396.80940129 -170.3515625 394.8671875 C-165.33225726 390.49757264 -160.64743014 385.7975488 -155.9543457 381.0847168 C-154.4400742 379.56508332 -152.9205257 378.05087483 -151.40039062 376.53710938 C-146.05651243 371.19726726 -140.8871994 365.76517717 -136 360 C-135.02716149 358.88183723 -134.05323556 357.76461945 -133.078125 356.6484375 C-126.59191093 349.1595619 -120.35179432 341.518596 -114.29833984 333.67626953 C-113.06849103 332.08842787 -111.8256279 330.51069128 -110.58203125 328.93359375 C-68.82422254 275.59531607 -33.23078549 209.41224947 -18.85546875 142.90234375 C-18.02001371 139.09129544 -17.05570808 135.33512042 -16.0625 131.5625 C-13.1611955 120.15747057 -11.06611057 108.58015392 -9 97 C-8.78166504 95.78248047 -8.56333008 94.56496094 -8.33837891 93.31054688 C-2.90352769 62.43963076 -0.73784827 31.31574803 0 0 Z " fill="#0049AC" transform="translate(1278,1000)"/>
<path d="M0 0 C-0.58325106 6.39654279 -1.36622526 12.72030809 -2.375 19.0625 C-3.59526311 26.98433265 -4.659908 34.91809888 -5.625 42.875 C-5.74794434 43.87152588 -5.87088867 44.86805176 -5.99755859 45.89477539 C-7.46160238 58.18769481 -8.15710998 70.43503772 -8.203125 82.8125 C-8.21022995 84.08804749 -8.2173349 85.36359497 -8.22465515 86.67779541 C-8.24433607 90.7852035 -8.24960581 94.89254888 -8.25 99 C-8.25014729 99.70261459 -8.25029457 100.40522919 -8.25044632 101.12913513 C-8.23956119 157.22249403 -1.33556709 211.46929282 16 265 C16.34933594 266.09957031 16.69867187 267.19914062 17.05859375 268.33203125 C38.38168761 335.42557568 72.60128472 397.23588997 118 451 C119.00653158 452.20310729 120.01304279 453.40623163 121.01953125 454.609375 C127.06598749 461.78960471 133.36586564 468.69693509 139.83764648 475.49633789 C143.37813685 479.22259325 146.75649839 483.01178549 150 487 C141.80520892 484.57881173 134.34799883 480.90840064 126.75 477.0625 C126.08970795 476.73019379 125.42941589 476.39788757 124.74911499 476.05551147 C89.75328053 458.42381691 57.05867462 437.15203803 27 412 C25.9996875 411.17371094 24.999375 410.34742188 23.96875 409.49609375 C11.17634965 398.87143093 -0.72883038 387.35841558 -12.5 375.625 C-13.43191162 374.69776123 -14.36382324 373.77052246 -15.32397461 372.81518555 C-20.42407019 367.70313195 -25.31824631 362.4962302 -30 357 C-30.94917044 355.91678397 -31.89963789 354.83470272 -32.8515625 353.75390625 C-40.65207426 344.81121147 -47.92410877 335.52386899 -55 326 C-55.54833496 325.26201172 -56.09666992 324.52402344 -56.66162109 323.76367188 C-86.3415099 283.63262692 -108.89304022 239.81502834 -126 193 C-126.66654594 191.20959047 -127.33320068 189.41922143 -128 187.62890625 C-135.46886314 167.27534037 -140.45083089 146.27670056 -144.43701172 124.99414062 C-144.99830106 122.00903545 -145.57671114 119.02772221 -146.16015625 116.046875 C-146.52384838 114.17716321 -146.88714864 112.30737514 -147.25 110.4375 C-147.41330811 109.59920654 -147.57661621 108.76091309 -147.74487305 107.8972168 C-148.68892213 102.950641 -149.56191027 98.02007744 -150 93 C-150.11609619 92.03779541 -150.23219238 91.07559082 -150.35180664 90.08422852 C-150.92100263 82.32372714 -150.92100263 82.32372714 -148.55615234 78.92480469 C-146.3749752 77.00425108 -144.13364541 75.44448812 -141.6875 73.875 C-140.80682861 73.26446777 -139.92615723 72.65393555 -139.01879883 72.02490234 C-136.03836795 69.97558305 -133.02058667 67.98957461 -130 66 C-128.3047529 64.8534645 -126.61432728 63.70007102 -124.92440796 62.54570007 C-112.87109597 54.31317045 -100.7410804 46.13765753 -88 39 C-87.16033691 38.52820313 -86.32067383 38.05640625 -85.45556641 37.5703125 C-64.09565185 25.63814553 -42.41518867 15.12581303 -19.625 6.25 C-18.81889282 5.93523712 -18.01278564 5.62047424 -17.18225098 5.2961731 C-14.88724149 4.40371177 -12.5890866 3.52007222 -10.2890625 2.640625 C-9.59646332 2.37251511 -8.90386414 2.10440521 -8.1902771 1.82817078 C-5.30596734 0.73869526 -3.11190697 0 0 0 Z " fill="#0049AC" transform="translate(652,711)"/>
<path d="M0 0 C55.02446396 1.62633884 116.87723163 21.80158498 165 48 C161.45959413 51.88065267 157.36204644 54.66617234 153.0625 57.625 C141.67010693 65.5779742 130.84987934 74.00848158 120.359375 83.11328125 C117.33638369 85.72946431 114.24318857 88.24769674 111.125 90.75 C107.21481178 93.92166072 103.60950528 97.23120053 100.14453125 100.8828125 C98.24120016 102.76187525 96.28956193 104.4998891 94.265625 106.24609375 C89.9759001 109.97155064 85.94210086 113.909594 81.9375 117.9375 C81.26912109 118.60201172 80.60074219 119.26652344 79.91210938 119.95117188 C75.98075546 123.8901669 72.24052272 127.93994033 68.60571289 132.15356445 C66.38600987 134.7060373 64.06592798 137.15988647 61.75 139.625 C56.78365508 144.98507626 52.25461689 150.6128576 47.796875 156.3984375 C45.96910545 158.76942527 44.10828088 161.1048228 42.203125 163.4140625 C6.66774824 206.59099964 -20.58985811 258.0380573 -40 310.3125 C-40.4014473 311.39174744 -40.4014473 311.39174744 -40.81100464 312.49279785 C-46.28059339 327.26553607 -50.93861327 342.21573755 -55 357.4375 C-55.1698642 358.07319916 -55.33972839 358.70889832 -55.51473999 359.36386108 C-58.68016698 371.26639104 -61.28727981 383.24273646 -63.51367188 395.35644531 C-63.93837203 397.66500619 -64.37948173 399.96944437 -64.828125 402.2734375 C-70.70476975 433.59470369 -72.84336857 465.20203913 -74 497 C-85.73815877 479.39276184 -90.89816973 453.49615352 -95.52880859 433.06152344 C-96.08146988 430.64355871 -96.66038394 428.23236762 -97.23828125 425.8203125 C-99.87193853 414.693281 -101.99601214 403.59357592 -103.640625 392.28051758 C-104.03472973 389.77961251 -104.50537687 387.29925237 -104.98046875 384.8125 C-109.42983038 360.42177503 -109.32354904 335.52554845 -109.36925507 310.81982803 C-109.37491718 308.5334441 -109.38596205 306.24714187 -109.39825439 303.96078491 C-109.48862324 284.76566969 -108.6371978 266.05040899 -106 247 C-105.85035797 245.89096313 -105.70071594 244.78192627 -105.54653931 243.63928223 C-96.94758316 180.17306741 -75.7535976 117.13101359 -43 62 C-42.41492676 61.01435059 -41.82985352 60.02870117 -41.22705078 59.01318359 C-32.77330118 44.85841402 -23.96359213 31.13749037 -14 18 C-13.40429199 17.21109375 -12.80858398 16.4221875 -12.19482422 15.609375 C-1.60553571 1.60553571 -1.60553571 1.60553571 0 0 Z " fill="#0049AC" transform="translate(793,502)"/>
<path d="M0 0 C1.0012258 0.00035877 1.0012258 0.00035877 2.02267838 0.00072479 C25.4533898 0.01132037 48.54475336 0.98496773 71.75 4.375 C72.8330542 4.53128876 72.8330542 4.53128876 73.93798828 4.69073486 C109.859769 9.92547117 144.59001629 19.20041242 178.75 31.375 C179.81154297 31.75011719 180.87308594 32.12523437 181.96679688 32.51171875 C196.27715628 37.61070005 210.04817296 43.83063583 223.75 50.375 C224.64138672 50.80071289 225.53277344 51.22642578 226.45117188 51.66503906 C245.01389415 60.5972143 262.63192372 70.92918569 279.75 82.375 C280.43723145 82.83406738 281.12446289 83.29313477 281.83251953 83.76611328 C291.07366368 89.96669296 300.05120708 96.43018713 308.75 103.375 C309.31041992 103.72079102 309.87083984 104.06658203 310.44824219 104.42285156 C312.7820994 105.98376367 314.51460016 107.46785806 315.23535156 110.24536133 C315.57545442 119.25515506 313.22082452 128.60803195 311.625 137.4375 C311.46560944 138.32960175 311.30621887 139.22170349 311.14199829 140.14083862 C306.58380214 165.58158239 300.05287157 189.92711896 291.75 214.375 C291.37472168 215.48939453 290.99944336 216.60378906 290.61279297 217.75195312 C285.27951995 233.48067014 278.87910723 248.57575039 271.97753906 263.66894531 C270.51877096 266.88473402 269.12066508 270.12083597 267.75 273.375 C264.60235052 272.02918076 262.99646242 270.74620824 261.0859375 267.91796875 C260.60914551 267.22445313 260.13235352 266.5309375 259.64111328 265.81640625 C259.1407959 265.07261719 258.64047852 264.32882812 258.125 263.5625 C257.04890416 262.00250457 255.97075688 260.44392237 254.890625 258.88671875 C254.35759766 258.11634277 253.82457031 257.3459668 253.27539062 256.55224609 C243.07706821 241.99580574 231.49905983 228.14380708 219.34765625 215.18359375 C217.44963861 213.13145137 215.63315073 211.06420198 213.82421875 208.9375 C208.63792509 202.98795902 203.01472804 197.45371861 197.43603516 191.87573242 C195.51303818 189.95055298 193.59819426 188.01750969 191.68359375 186.08398438 C185.40600654 179.77805168 179.09440318 173.78070418 172.11425781 168.2512207 C169.46216798 166.14658312 166.94002136 163.92872974 164.41650391 161.67358398 C155.33922106 153.57903071 145.63176326 146.44804632 135.75 139.375 C134.64688477 138.57980957 134.64688477 138.57980957 133.52148438 137.76855469 C117.1670582 125.98657196 100.3313464 115.2332998 82.75 105.375 C81.83863281 104.86179199 80.92726563 104.34858398 79.98828125 103.81982422 C56.72127755 90.77776399 32.66412834 79.87356041 7.75 70.375 C6.72551758 69.98183594 5.70103516 69.58867188 4.64550781 69.18359375 C-10.20161139 63.5266593 -25.15773832 59.02667689 -40.54345703 55.08447266 C-43.84828382 54.21817041 -47.10660986 53.24438294 -50.375 52.25 C-64.0072834 48.32119286 -78.09479126 45.47766394 -92.20996094 44.04467773 C-97.98655214 43.45334537 -103.66271742 42.49626551 -109.36889648 41.42724609 C-117.80310227 39.85591349 -126.00482065 39.17882294 -134.5625 38.875 C-140.26663508 38.67006102 -145.94294499 38.43534004 -151.625 37.87890625 C-158.05325115 37.25824752 -164.4849863 37.03350131 -170.9375 36.8125 C-172.12794922 36.76931641 -173.31839844 36.72613281 -174.54492188 36.68164062 C-177.44653034 36.57676321 -180.34820635 36.47459804 -183.25 36.375 C-156.85544548 9.98044548 -87.2246413 6.42147894 -51.38653564 2.61071777 C-49.19385036 2.36880517 -47.00530505 2.10108246 -44.81591797 1.83105469 C-29.89729021 0.06840643 -15.00820697 -0.02291842 0 0 Z " fill="#0049AC" transform="translate(1182.25,684.625)"/>
<path d="M0 0 C0.33 0.66 0.66 1.32 1 2 C0.10878821 4.26173075 -0.84457037 6.39124982 -1.91015625 8.5703125 C-2.38790497 9.56735954 -2.38790497 9.56735954 -2.87530518 10.58454895 C-3.92771764 12.76969922 -4.99383761 14.94775486 -6.0625 17.125 C-6.42491791 17.868638 -6.78733582 18.612276 -7.16073608 19.37844849 C-13.35689929 32.06800907 -20.05816559 44.33818582 -27.41552734 56.3984375 C-28.92698911 58.88012265 -30.41407879 61.37472568 -31.89453125 63.875 C-38.09734982 74.2858546 -44.84784412 84.22033406 -52 94 C-52.50176758 94.68868164 -53.00353516 95.37736328 -53.52050781 96.08691406 C-59.53834754 104.31839001 -65.77674429 112.28364792 -72.4375 120.00390625 C-74.75093413 122.70879036 -76.97462055 125.46294539 -79.1875 128.25 C-88.38071411 139.5169942 -98.75055953 149.82789827 -109 160.125 C-109.68126953 160.81094238 -110.36253906 161.49688477 -111.06445312 162.20361328 C-114.98704464 166.11374299 -119.02041688 169.8366911 -123.21386719 173.45458984 C-125.39388256 175.34079778 -127.50745018 177.29415399 -129.625 179.25 C-135.23556792 184.3054889 -141.13263287 188.93399105 -147.11376953 193.53759766 C-148.96290208 194.97123783 -150.79313502 196.42621854 -152.62109375 197.88671875 C-204.2593877 238.75318213 -266.14210209 269.38214717 -330.00292969 285.48339844 C-332.16071673 286.04157416 -334.30210398 286.64612621 -336.4453125 287.2578125 C-347.29983174 290.31196617 -358.17582526 292.34574793 -369.3125 294.0859375 C-373.47066653 294.73703339 -377.58891749 295.48914301 -381.70849609 296.34887695 C-383.62358006 296.73704411 -385.55020668 297.06685217 -387.4765625 297.39453125 C-390.99113446 297.94436521 -390.99113446 297.94436521 -394.3359375 298.88671875 C-398.29319919 299.56223194 -400.25975747 299.53457319 -404 298 C-410.18743756 292.41173439 -414.48014498 284.92246178 -419 278 C-420.36935964 275.98402554 -421.74309608 273.97101741 -423.12109375 271.9609375 C-431.12730901 260.21169152 -438.8066277 248.26415699 -446 236 C-446.3928418 235.33532715 -446.78568359 234.6706543 -447.19042969 233.98583984 C-460.66574288 211.02189326 -471.66834099 186.69403713 -480.96289062 161.77392578 C-481.61566948 160.02795748 -482.27949325 158.28603989 -482.95898438 156.55029297 C-484.13027872 153.5476567 -485 151.25466107 -485 148 C-479.55744077 148.54546807 -474.16523518 149.26009167 -468.7578125 150.0859375 C-426.0360749 156.55873447 -383.36111609 158.86028794 -340.25146484 155.26025391 C-337.35194362 155.02817029 -334.45448307 154.8376971 -331.55078125 154.66796875 C-293.64048812 152.24213495 -255.24195318 143.77470904 -219.2109375 132.04150391 C-215.96972851 130.9901811 -212.72011182 129.96865615 -209.46875 128.94921875 C-191.84367726 123.33935353 -174.94441143 116.36183607 -158 109 C-156.18898083 108.2235413 -154.37780487 107.44744808 -152.56640625 106.671875 C-143.10308694 102.58308796 -134.02544636 97.9744902 -125 93 C-123.67742187 92.30003906 -123.67742187 92.30003906 -122.328125 91.5859375 C-105.21976051 82.50043959 -88.96735883 71.93805879 -73 61 C-72.33242676 60.54383301 -71.66485352 60.08766602 -70.97705078 59.61767578 C-61.88057252 53.36670089 -53.32045121 46.52804232 -44.81738281 39.49707031 C-42.29032671 37.41540615 -39.73626635 35.36748825 -37.1875 33.3125 C-32.49359365 29.47139045 -28.0067494 25.43304035 -23.54296875 21.328125 C-21.42932946 19.39305738 -19.29340152 17.49791703 -17.125 15.625 C-11.28956578 10.55867113 -5.66290202 5.25717581 0 0 Z " fill="#0049AC" transform="translate(1196,1199)"/>
<path d="M0 0 C4.48913094 0.80560555 5.70425544 2.7473046 8.34228516 6.33154297 C8.92929199 7.18119629 9.51629883 8.03084961 10.12109375 8.90625 C10.75708496 9.79199707 11.39307617 10.67774414 12.04833984 11.59033203 C14.16744123 14.57017443 16.24192001 17.57733361 18.30859375 20.59375 C19.41581787 22.19887451 19.41581787 22.19887451 20.54541016 23.83642578 C43.92242558 57.81361393 63.773741 93.67558061 78.43359375 132.28125 C78.79422409 133.22898285 78.79422409 133.22898285 79.16213989 134.19586182 C83.41373023 145.4200603 83.41373023 145.4200603 84.30859375 150.59375 C76.83607301 149.71766136 69.38514172 148.80306345 61.96789551 147.5337677 C49.80525283 145.47799392 37.60096532 144.35724641 25.30859375 143.40625 C23.65102051 143.27742432 23.65102051 143.27742432 21.95996094 143.14599609 C-27.2628489 139.40246816 -75.21182111 142.42607722 -123.69140625 151.59375 C-124.83077637 151.80644531 -125.97014648 152.01914062 -127.14404297 152.23828125 C-210.61617786 168.0334052 -293.84949273 206.5356755 -358.69140625 261.59375 C-359.7586258 262.48756311 -360.82636068 263.38076115 -361.89453125 264.2734375 C-367.84256924 269.25847634 -373.69279822 274.33074816 -379.43359375 279.5546875 C-381.47124817 281.39492211 -383.54147012 283.18555558 -385.62890625 284.96875 C-390.91798032 289.56275068 -395.78146272 294.60257579 -400.69140625 299.59375 C-401.90555181 295.95131332 -401.42209376 295.39581815 -399.8046875 292.04296875 C-399.36697021 291.12789551 -398.92925293 290.21282227 -398.47827148 289.27001953 C-397.99173096 288.28372559 -397.50519043 287.29743164 -397.00390625 286.28125 C-396.25765991 284.74766846 -396.25765991 284.74766846 -395.49633789 283.18310547 C-390.22953263 272.46847681 -384.56120554 261.98814397 -378.69140625 251.59375 C-378.27036621 250.84432129 -377.84932617 250.09489258 -377.41552734 249.32275391 C-362.88624614 223.59369654 -345.57577351 199.1655091 -326.35546875 176.73046875 C-323.84544895 173.79427038 -321.4221161 170.79362481 -319.00390625 167.78125 C-315.73390941 163.75932875 -312.29127803 160.08039026 -308.57421875 156.47265625 C-306.76173746 154.66393529 -305.09931489 152.79399519 -303.44140625 150.84375 C-296.84280727 143.1881672 -289.56014314 136.02605845 -281.859375 129.484375 C-279.59275205 127.50771643 -277.40507178 125.45639835 -275.21655273 123.39404297 C-268.56645564 117.14635595 -261.63368136 111.4274533 -254.38378906 105.89208984 C-252.78610455 104.66639939 -251.20309055 103.42165405 -249.62109375 102.17578125 C-227.82910994 85.09331824 -204.52537134 70.4091192 -180.30712891 57.04101562 C-178.05632932 55.79566002 -175.81617863 54.53365039 -173.578125 53.265625 C-125.0776435 26.22952847 -68.34460593 9.37623583 -13.56640625 1.78125 C-12.67228027 1.6572583 -11.7781543 1.5332666 -10.85693359 1.40551758 C-9.20797544 1.19114354 -7.55622217 0.99689782 -5.90209961 0.8269043 C-3.92647547 0.61854195 -1.96137148 0.31547986 0 0 Z " fill="#0049AC" transform="translate(1203.69140625,502.40625)"/>
</svg>
