<?xml version="1.0" encoding="UTF-8"?>
<svg version="1.1" xmlns="http://www.w3.org/2000/svg" width="2000" height="2000">
<path d="M0 0 C660 0 1320 0 2000 0 C2000 660 2000 1320 2000 2000 C1340 2000 680 2000 0 2000 C0 1340 0 680 0 0 Z " fill="#FEFEFE" transform="translate(0,0)"/>
<path d="M0 0 C1.48833847 -0.00010574 1.48833847 -0.00010574 3.00674438 -0.00021362 C18.88587744 0.04307727 33.7957586 0.93440878 49.125 5.4375 C50.18589844 5.74864746 51.24679687 6.05979492 52.33984375 6.38037109 C73.9211022 12.92910102 94.9845741 21.88365738 113.125 35.4375 C113.72634766 35.88625488 114.32769531 36.33500977 114.94726562 36.79736328 C122.6815485 42.62666043 130.0838808 48.78171568 137.125 55.4375 C137.93324219 56.19289063 138.74148438 56.94828125 139.57421875 57.7265625 C169.14872298 86.23322749 188.52088192 126.15192392 195.125 166.4375 C195.3000708 167.46705811 195.4751416 168.49661621 195.65551758 169.55737305 C196.22087542 174.22988072 196.30617648 178.81354467 196.328125 183.515625 C196.33382507 184.48167664 196.33952515 185.44772827 196.34539795 186.4430542 C196.35481595 188.48709023 196.36136916 190.53114123 196.36523438 192.57519531 C196.37483952 195.63635496 196.40585154 198.69681296 196.4375 201.7578125 C196.7177367 253.95189725 173.82758702 302.21135343 137.625 339.1875 C116.34880833 359.98219369 90.53922725 375.33179066 62.49227905 384.96191406 C60.6469507 385.59598213 58.80542686 386.24109024 56.96411133 386.88671875 C39.30509724 392.77423617 21.69620916 395.09348554 3.11816406 394.84912109 C0.22946098 394.81223776 -2.65795863 394.80810674 -5.546875 394.80859375 C-20.43812723 394.75398142 -34.7547591 393.69024285 -49.1875 389.75 C-50.16332031 389.48654785 -51.13914062 389.2230957 -52.14453125 388.95166016 C-74.49202136 382.76463531 -96.19031729 373.35785479 -114.875 359.4375 C-115.41350586 359.03740723 -115.95201172 358.63731445 -116.50683594 358.22509766 C-125.48195779 351.50512038 -133.76892739 344.17358589 -141.875 336.4375 C-142.85533203 335.53644531 -142.85533203 335.53644531 -143.85546875 334.6171875 C-170.83313321 309.11336219 -190.517331 268.84618493 -195.875 232.4375 C-196.1222583 231.16422852 -196.1222583 231.16422852 -196.37451172 229.86523438 C-198.10010206 220.34621165 -198.18006236 210.97606345 -198.13574219 201.33642578 C-198.12504577 198.57431959 -198.1356796 195.81286747 -198.1484375 193.05078125 C-198.15646488 182.66282366 -197.59180034 172.68927286 -195.875 162.4375 C-195.68389648 161.23367676 -195.49279297 160.02985352 -195.29589844 158.78955078 C-190.13245725 127.67496823 -175.09333884 99.05046026 -155.875 74.4375 C-155.20210937 73.55835938 -154.52921875 72.67921875 -153.8359375 71.7734375 C-142.6460939 57.56610799 -129.53749592 45.92474583 -114.875 35.4375 C-114.26221191 34.99067871 -113.64942383 34.54385742 -113.01806641 34.08349609 C-93.3579028 19.82785483 -71.01943153 10.69458803 -47.625 4.625 C-46.88233887 4.42986816 -46.13967773 4.23473633 -45.37451172 4.03369141 C-30.42757245 0.38314556 -15.3028242 -0.00783129 0 0 Z " fill="#F5BF1E" transform="translate(1000.875,802.5625)"/>
<path d="M0 0 C6.7842335 2.13822638 13.04796355 5.22001711 19.4375 8.3125 C20.40132095 8.7782695 20.40132095 8.7782695 21.38461304 9.25344849 C47.22951177 21.78245372 72.56024424 36.28412568 95.39013672 53.77099609 C96.99086689 54.99302759 98.60395855 56.19642838 100.22265625 57.39453125 C114.45703556 67.95784434 128.07319372 79.22642269 141.05078125 91.296875 C143.27583904 93.35954803 145.55446844 95.34999927 147.8515625 97.33203125 C152.09630414 101.0326783 156.09324034 104.94514087 160.0625 108.9375 C160.73087891 109.60201172 161.39925781 110.26652344 162.08789062 110.95117188 C166.03568871 114.90664303 169.79750244 118.9717772 173.44799805 123.20288086 C175.38316081 125.44367574 177.37737973 127.62736365 179.375 129.8125 C184.10223494 135.0641005 188.6016186 140.47146791 193 146 C193.52255371 146.65532715 194.04510742 147.3106543 194.58349609 147.98583984 C202.83806488 158.37183685 210.67180004 168.94117879 218 180 C218.43876465 180.65758301 218.8775293 181.31516602 219.32958984 181.99267578 C254.38664823 234.67418746 278.42501469 291.81187054 292.25 353.4375 C292.41721558 354.18046326 292.58443115 354.92342651 292.75671387 355.68890381 C294.76667537 364.67591864 296.53379152 373.67004037 297.96502686 382.76841736 C298.53160868 386.34542517 299.17496128 389.87292944 299.98095703 393.40454102 C300.93560597 397.81930185 301.14827504 400.61403967 300 405 C295.98799689 410.25846432 290.18611687 413.75228636 284.68505859 417.27783203 C282.03814161 418.97553638 279.44873275 420.7377196 276.86328125 422.52734375 C271.63814091 426.11742975 266.33645037 429.57807198 261 433 C260.1347168 433.55574707 259.26943359 434.11149414 258.37792969 434.68408203 C245.24406948 443.07310748 231.79505803 450.7545457 218 458 C217.07944824 458.48823242 216.15889648 458.97646484 215.21044922 459.47949219 C163.04484591 487 163.04484591 487 148 487 C148.44353253 480.33171787 149.32458868 473.78082018 150.375 467.1875 C152.51690256 453.53436694 153.79924044 439.7640715 155 426 C155.08480118 425.04186905 155.16960236 424.0837381 155.25697327 423.09657288 C155.88425472 415.58921095 156.16001949 408.14518277 156.16796875 400.61328125 C156.17129715 399.47255661 156.17462555 398.33183197 156.17805481 397.15653992 C156.18308218 394.75402219 156.18546444 392.35149759 156.18530273 389.94897461 C156.18746752 386.36624876 156.20560905 382.78384261 156.22460938 379.20117188 C156.26369498 363.37851686 155.5039897 347.74991808 154 332 C153.92429779 331.19980438 153.84859558 330.39960876 153.77059937 329.57516479 C153.32605526 324.97950639 152.81020528 320.39572613 152.25 315.8125 C152.16763092 315.136427 152.08526184 314.460354 152.00039673 313.76379395 C150.09894725 298.35380144 147.29177914 283.17623009 144 268 C143.73848145 266.79424316 143.47696289 265.58848633 143.20751953 264.34619141 C134.8841751 226.68471438 122.11325827 190.40513133 106.1875 155.3125 C105.73378525 154.31067184 105.73378525 154.31067184 105.27090454 153.28860474 C99.59978387 140.82614442 93.15728716 128.82749377 86.51953125 116.85546875 C85.64253438 115.20743607 84.78226278 113.54977245 83.96948242 111.86914062 C80.63840681 104.99755667 76.77240518 98.57231554 72.6875 92.125 C71.6823938 90.53075195 71.6823938 90.53075195 70.65698242 88.90429688 C68.77815235 85.93178536 66.89140242 82.96452329 65 80 C64.57750977 79.33581055 64.15501953 78.67162109 63.71972656 77.98730469 C50.18643372 56.8172786 33.83529338 37.28900489 16.72265625 18.94140625 C14.49230854 16.54556383 12.32385633 14.10546742 10.1875 11.625 C7.37582752 8.36318291 4.38354334 5.33708907 1.28515625 2.34765625 C0 1 0 1 0 0 Z " fill="#004AAD" transform="translate(1199,801)"/>
<path d="M0 0 C3.71083702 3.39227328 6.30192776 7.21926252 9.0625 11.375 C14.36122397 19.21385238 20.04825184 26.6497163 26 34 C27.12341797 35.39798828 27.12341797 35.39798828 28.26953125 36.82421875 C41.76876249 53.48543209 56.11376372 69.19471314 71.25 84.375 C71.7696936 84.89737244 72.28938721 85.41974487 72.8248291 85.95794678 C78.7022294 91.85830023 84.64148363 97.61340834 91 103 C92.11819376 103.97280289 93.23541157 104.94672894 94.3515625 105.921875 C101.80502007 112.37808651 109.39227459 118.61737685 117.21240234 124.62451172 C118.39036257 125.53090723 119.56525655 126.44130375 120.73681641 127.35595703 C140.62194329 142.87267578 162.02292705 156.65371173 184 169 C185.00853027 169.5667041 186.01706055 170.1334082 187.05615234 170.71728516 C241.55130688 201.12090391 301.27015915 222.3941019 363 232 C363.65840881 232.10356812 364.31681763 232.20713623 364.99517822 232.31384277 C392.88087084 236.67867364 420.82925579 238.54788114 449 240 C446.78680296 242.21319704 445.30687181 242.78142087 442.390625 243.84765625 C441.42398926 244.20110107 440.45735352 244.5545459 439.46142578 244.91870117 C438.40165527 245.29615479 437.34188477 245.6736084 436.25 246.0625 C435.14253418 246.45735596 434.03506836 246.85221191 432.89404297 247.2590332 C410.64509088 255.07292953 388.13259999 261.42369549 365 266 C363.85821289 266.22671387 362.71642578 266.45342773 361.54003906 266.68701172 C344.44234006 270.02785918 327.34509023 272.40806026 310 274 C308.90848633 274.10441406 307.81697266 274.20882813 306.69238281 274.31640625 C224.14717363 282.01315635 139.52132709 267.46489606 11 207 C9.7639502 206.27248535 9.7639502 206.27248535 8.50292969 205.53027344 C-8.33823646 195.55517421 -24.48755555 184.46692176 -39.97753906 172.49707031 C-41.92779674 170.98579212 -41.92779674 170.98579212 -43.92089844 169.93261719 C-45.6171875 168.8984375 -45.6171875 168.8984375 -48 166 C-48.34791265 161.5709725 -47.68607113 157.37347875 -47 153 C-46.85288574 151.90510254 -46.70577148 150.81020508 -46.55419922 149.68212891 C-39.22223456 97.27901239 -22.62814599 47.69711106 0 0 Z " fill="#004AAD" transform="translate(549,1040)"/>
<path d="M0 0 C2.24679484 2.24679484 2.84900751 3.8522949 3.953125 6.8125 C4.32187744 7.79565186 4.69062988 8.77880371 5.07055664 9.79174805 C5.6543811 11.37983276 5.6543811 11.37983276 6.25 13 C6.65404053 14.0928833 7.05808105 15.1857666 7.47436523 16.31176758 C8.65989662 19.53753776 9.83338588 22.7673449 11 26 C11.28955566 26.80099121 11.57911133 27.60198242 11.87744141 28.42724609 C29.89665769 78.86040585 37.46860321 132.16731052 37.3125 185.5625 C37.31100952 186.83103821 37.30951904 188.09957642 37.3079834 189.40655518 C37.26710852 208.80290537 36.57796898 227.7656551 34 247 C33.70653908 249.39447098 33.41357522 251.78900293 33.12109375 254.18359375 C23.53232973 329.3861676 -5.52618314 404.91581634 -49 467 C-49.39316406 467.56364258 -49.78632812 468.12728516 -50.19140625 468.70800781 C-52.2222994 471.61231563 -54.27909357 474.49277256 -56.37890625 477.34765625 C-58.30675551 479.98211592 -60.08749194 482.67955896 -61.83984375 485.43359375 C-62.83025955 486.91437671 -63.82113684 488.39485112 -64.8125 489.875 C-65.23708496 490.58390381 -65.66166992 491.29280762 -66.09912109 492.02319336 C-67.59749134 494.19585716 -68.7780709 495.56240995 -71 497 C-79.78738364 498.60783232 -89.24822273 496.46284122 -97.9375 494.9375 C-99.87653198 494.60359253 -99.87653198 494.60359253 -101.85473633 494.26293945 C-125.32818531 490.14033171 -148.27125683 484.12628226 -171 477 C-171.90443848 476.72220703 -172.80887695 476.44441406 -173.74072266 476.15820312 C-195.82194184 469.35117946 -217.28044813 460.1948591 -238 450 C-233.91154159 446.68205875 -229.72031744 443.52134984 -225.5 440.375 C-214.48656911 432.13416344 -203.55604866 423.82554888 -193 415 C-192.47857422 414.56494141 -191.95714844 414.12988281 -191.41992188 413.68164062 C-177.80653531 402.28625565 -165.01184279 390.08831105 -152.4375 377.5625 C-151.60460449 376.73427734 -150.77170898 375.90605469 -149.91357422 375.05273438 C-145.06893536 370.19537479 -140.45993041 365.2107786 -136 360 C-134.95466932 358.80853915 -133.90782089 357.61840799 -132.859375 356.4296875 C-126.10854619 348.7290041 -119.58538595 340.90286937 -113.359375 332.77148438 C-112.00929822 331.01211707 -110.64559664 329.26393777 -109.28125 327.515625 C-96.50604618 310.97491099 -84.5554934 293.26451886 -74.19921875 275.10253906 C-73.30131663 273.52828558 -72.39652724 271.95795691 -71.48828125 270.38964844 C-53.90780243 239.99263173 -39.33696772 208.23972218 -28 175 C-27.71592285 174.17467773 -27.4318457 173.34935547 -27.13916016 172.49902344 C-8.39844263 117.16096993 -1.37021413 58.15461301 0 0 Z " fill="#004AAD" transform="translate(1278,1000)"/>
<path d="M0 0 C-0.68827132 8.87716078 -1.94068973 17.60469977 -3.36328125 26.390625 C-7.05506791 50.25845505 -8.52609532 73.85449822 -8.38672256 97.96009064 C-8.37478327 100.16502528 -8.367831 102.36993167 -8.36190796 104.57489014 C-8.29472521 126.16678278 -7.85071174 147.57003638 -5 169 C-4.82123147 170.38361886 -4.64252217 171.76724538 -4.46386719 173.15087891 C6.95431166 260.26090604 39.56471687 347.27429142 93.59667969 420.12207031 C94.85857049 421.81073838 96.10600185 423.51018857 97.3515625 425.2109375 C112.96564016 446.38930465 130.31196349 466.48134147 149 485 C148.67 485.66 148.34 486.32 148 487 C123.61917928 475.50103285 99.65303081 463.67451423 77 449 C75.95295898 448.32541748 75.95295898 448.32541748 74.88476562 447.63720703 C65.32304964 441.45393281 56.10306598 434.83723733 47 428 C46.43539062 427.5771875 45.87078125 427.154375 45.2890625 426.71875 C36.93348024 420.44225629 28.91186092 413.82529868 21 407 C20.26007813 406.36191406 19.52015625 405.72382812 18.7578125 405.06640625 C16.82835511 403.38878567 14.91412708 401.69508405 13 400 C12.3198584 399.40469482 11.6397168 398.80938965 10.93896484 398.19604492 C3.9227199 391.98372913 -2.71951828 385.43363595 -9.33276367 378.79760742 C-11.19142108 376.93356756 -13.05539614 375.07496488 -14.91992188 373.21679688 C-20.82527176 367.31504132 -26.63132658 361.40187202 -32 355 C-32.87648789 353.9899157 -33.75403978 352.98075338 -34.6328125 351.97265625 C-42.10824911 343.24350222 -49.13010092 334.21168073 -56 325 C-56.54446777 324.27119629 -57.08893555 323.54239258 -57.64990234 322.79150391 C-75.57712122 298.6843225 -90.46572685 272.78568336 -104 246 C-104.40460449 245.20158691 -104.80920898 244.40317383 -105.22607422 243.58056641 C-125.68017697 202.85553197 -138.94549773 158.23234035 -146.83068848 113.46424866 C-147.65607517 108.79577583 -148.59787401 104.16631837 -149.59765625 99.53125 C-152.4848675 84.8714771 -152.4848675 84.8714771 -150.01123047 80.08789062 C-147.02062223 76.49013411 -143.24359105 74.35971817 -139.15283203 72.19677734 C-136.1846419 70.54673561 -133.52209798 68.56253984 -130.79321289 66.54833984 C-40.2887299 0 -40.2887299 0 0 0 Z " fill="#004AAD" transform="translate(652,711)"/>
<path d="M0 0 C0.93545654 0.12221924 1.87091309 0.24443848 2.8347168 0.37036133 C3.89811279 0.50063721 4.96150879 0.63091309 6.05712891 0.76513672 C7.74721069 1.01251587 7.74721069 1.01251587 9.47143555 1.26489258 C10.59235596 1.41498779 11.71327637 1.56508301 12.86816406 1.71972656 C57.34040169 7.94887844 100.58323181 20.29920751 141.78393555 38.13989258 C142.74464462 38.55517715 142.74464462 38.55517715 143.72476196 38.97885132 C150.16825855 41.77655521 156.47351821 44.59703766 162.47143555 48.26489258 C158.94749314 52.12662221 154.87826507 54.88804929 150.59643555 57.82739258 C139.08521798 65.8480881 128.22536804 74.52296507 117.5690918 83.63989258 C114.66665181 86.11606214 111.6990297 88.50450421 108.72143555 90.88989258 C104.4835703 94.33431136 100.60722015 97.9825688 96.8347168 101.92895508 C94.84583244 103.89482755 92.82116165 105.71716171 90.70581055 107.54223633 C86.4253163 111.25601164 82.40321567 115.18486738 78.40893555 119.20239258 C77.74055664 119.8669043 77.07217773 120.53141602 76.38354492 121.21606445 C72.43574684 125.17153561 68.67393311 129.23666978 65.0234375 133.46777344 C63.08827474 135.70856832 61.09405581 137.89225623 59.09643555 140.07739258 C54.36625201 145.32693748 49.88686027 150.74925476 45.47143555 156.26489258 C45.05667969 156.78003418 44.64192383 157.29517578 44.21459961 157.82592773 C-15.66939871 232.33171495 -54.03314886 320.49508091 -76.52856445 497.26489258 C-79.37766081 493.92974632 -80.76827353 490.36803329 -82.1652832 486.27270508 C-82.40583435 485.58303146 -82.6463855 484.89335785 -82.89422607 484.18278503 C-83.67791891 481.92170488 -84.44837521 479.65645315 -85.21606445 477.38989258 C-85.48146027 476.61157074 -85.74685608 475.8332489 -86.02029419 475.03134155 C-96.55223342 444.04486527 -103.66116727 412.52268025 -108.13061523 380.11547852 C-108.45242765 377.810275 -108.79171515 375.5099741 -109.1496582 373.21020508 C-122.55230677 283.2358356 -105.04047274 187.79361473 -30.52856445 38.26489258 C-30.06853027 37.58104492 -29.60849609 36.89719727 -29.13452148 36.19262695 C-23.83532869 28.32706637 -18.44812617 20.53573708 -12.63012695 13.04223633 C-10.48352497 10.28154244 -10.48352497 10.28154244 -8.61450195 7.26879883 C-3.99712462 0.41873904 -3.99712462 0.41873904 0 0 Z " fill="#004AAD" transform="translate(795.528564453125,501.735107421875)"/>
<path d="M0 0 C3.18950172 0.00535151 6.37886194 0.00002546 9.56835938 -0.00634766 C28.38473305 -0.01481513 46.90418423 0.8397139 65.57617188 3.19287109 C66.42489868 3.29918854 67.27362549 3.40550598 68.14807129 3.51504517 C100.03558607 7.57093918 131.06694281 14.89028756 161.82617188 24.13037109 C162.8688623 24.44329102 163.91155273 24.75621094 164.98583984 25.07861328 C180.31124543 29.75759699 195.08438694 35.88173001 209.82617188 42.13037109 C210.74849609 42.5198291 211.67082031 42.90928711 212.62109375 43.31054688 C225.31325852 48.7135508 237.40260903 55.02194886 249.42285156 61.78027344 C251.4603968 62.924892 253.50417265 64.0564406 255.55273438 65.18115234 C271.79065391 74.23020774 287.37058858 84.36092843 302.05078125 95.76074219 C304.90602431 97.96342557 307.80570156 100.10602426 310.70117188 102.25537109 C313.23267804 104.13848058 315.59675882 105.90095804 317.82617188 108.13037109 C318.98744794 116.1858051 317.0206477 124.70907843 315.70117188 132.63037109 C315.58946655 133.30810577 315.47776123 133.98584045 315.3626709 134.68411255 C313.1051968 148.31157191 310.27317283 161.75081588 306.82617188 175.13037109 C306.51196289 176.35272461 306.19775391 177.57507813 305.87402344 178.83447266 C297.38123154 211.3833237 286.04330353 243.08253232 270.82617188 273.13037109 C267.50726666 272.02406936 267.1357534 271.53696246 265.25976562 268.77099609 C264.77967041 268.07417725 264.2995752 267.3773584 263.80493164 266.65942383 C263.29631592 265.90733643 262.7877002 265.15524902 262.26367188 264.38037109 C261.17978792 262.81254318 260.09382749 261.24614889 259.00585938 259.68115234 C258.46670898 258.90465332 257.92755859 258.1281543 257.37207031 257.328125 C247.79186337 243.70825404 237.06461213 230.55721494 225.80664062 218.29443359 C223.91776859 216.23045902 222.08670927 214.12746856 220.26367188 212.00537109 C217.25317504 208.5429521 214.04641261 205.32969342 210.77539062 202.11474609 C208.96141231 200.26805073 207.29905744 198.36463433 205.63867188 196.38037109 C201.0440139 191.0459836 195.76501154 186.42626518 190.55664062 181.70800781 C188.85276896 180.15461917 187.16511256 178.58556258 185.48242188 177.00927734 C179.74624851 171.64081831 173.94320649 166.44343715 167.81054688 161.52490234 C165.59589645 159.74796424 163.40124807 157.95541307 161.21679688 156.14208984 C135.16567618 134.59201662 106.6005548 116.10186587 76.82617188 100.13037109 C75.92511719 99.64101074 75.0240625 99.15165039 74.09570312 98.64746094 C41.34742192 80.90880862 6.80031177 66.82933395 -29.17382812 57.13037109 C-30.37555664 56.80294922 -31.57728516 56.47552734 -32.81542969 56.13818359 C-50.46260859 51.35677327 -68.12926702 47.15616646 -86.17382812 44.13037109 C-88.10452148 43.80359375 -88.10452148 43.80359375 -90.07421875 43.47021484 C-111.07397955 39.95798464 -131.90788663 38.00402724 -153.17382812 37.13037109 C-154.528321 37.07342129 -155.88281319 37.0164551 -157.23730469 36.95947266 C-164.88150777 36.64224311 -172.5266548 36.3653161 -180.17382812 36.13037109 C-164.17883337 20.13537634 -125.1533095 16.21238244 -103.17382812 11.13037109 C-102.11728027 10.88303223 -101.06073242 10.63569336 -99.97216797 10.38085938 C-85.99424443 7.16577632 -71.89068056 5.17564144 -57.67382812 3.38037109 C-56.83110352 3.27318756 -55.98837891 3.16600403 -55.12011719 3.05557251 C-36.70193572 0.7386915 -18.56132125 -0.03694078 0 0 Z " fill="#004AAD" transform="translate(1179.173828125,684.86962890625)"/>
<path d="M0 0 C0.33 0.66 0.66 1.32 1 2 C0.0729759 4.30759224 -0.91626166 6.48607173 -2.015625 8.7109375 C-2.34228149 9.3865271 -2.66893799 10.0621167 -3.00549316 10.75817871 C-4.07802308 12.96829012 -5.16310314 15.17192219 -6.25 17.375 C-6.61758423 18.12541565 -6.98516846 18.8758313 -7.3638916 19.64898682 C-27.66573945 61.08981496 -53.05585169 100.50522585 -84.5859375 134.375 C-85.87386112 135.77546064 -87.15565732 137.18261641 -88.38989258 138.63061523 C-93.68294446 144.83847547 -99.42177326 150.57333195 -105.19702148 156.32739258 C-106.933936 158.058947 -108.66543889 159.79578359 -110.39648438 161.53320312 C-116.09525439 167.23575247 -121.83353071 172.79874734 -128 178 C-129.13020118 178.98419202 -130.25913545 179.96984103 -131.38671875 180.95703125 C-154.42085908 200.94131907 -179.60448418 218.73461671 -206 234 C-206.90637207 234.5264209 -206.90637207 234.5264209 -207.83105469 235.06347656 C-212.51840064 237.77485735 -217.24846363 240.40299411 -222 243 C-223.22058105 243.67071533 -223.22058105 243.67071533 -224.46582031 244.35498047 C-275.29893702 272.11592328 -331.56635144 289.83607224 -388.92333984 297.54980469 C-391.03954045 297.85945982 -393.14729024 298.23115045 -395.24389648 298.65356445 C-398.75532255 299.31874322 -400.63286087 299.26322736 -404 298 C-408.64987592 293.95377683 -411.94935139 288.59005266 -415.32910156 283.49267578 C-416.9435768 281.08417313 -418.62119699 278.74021676 -420.3359375 276.40234375 C-436.92030165 253.64272176 -450.49217656 229.17063849 -463 204 C-463.44279297 203.12085938 -463.88558594 202.24171875 -464.34179688 201.3359375 C-471.10701005 187.87129928 -476.51952181 173.89493939 -481.90600586 159.83642578 C-482.613552 158.00195332 -483.35711361 156.1807977 -484.14282227 154.37841797 C-485 152 -485 152 -485 148 C-483.77152344 148.17015625 -482.54304687 148.3403125 -481.27734375 148.515625 C-477.45932362 149.04266934 -473.64010129 149.56015869 -469.8203125 150.07421875 C-465.16597341 150.70099946 -460.51613829 151.35404884 -455.8671875 152.01953125 C-406.72381173 158.89921736 -356.13195957 159.31482703 -307 152 C-305.67514122 151.80754137 -304.35027083 151.61516267 -303.02539062 151.42285156 C-279.96571527 148.04073035 -257.46897366 143.17585078 -235 137 C-234.32862 136.81588562 -233.65723999 136.63177124 -232.96551514 136.44207764 C-164.89870472 117.69159779 -100.4857718 85.03195967 -45.72363281 40.40332031 C-44.14078734 39.11462403 -42.55118233 37.83424183 -40.9609375 36.5546875 C-35.59891025 32.21975279 -30.40967081 27.74086028 -25.3125 23.09765625 C-23.33615628 21.30492554 -21.3354327 19.55204773 -19.3125 17.8125 C-12.70478638 12.06666207 -6.38166924 5.99403269 0 0 Z " fill="#004AAD" transform="translate(1196,1199)"/>
<path d="M0 0 C4.55503043 0.85764171 6.23380728 4.12421892 8.80078125 7.77734375 C9.35765625 8.53950195 9.91453125 9.30166016 10.48828125 10.08691406 C12.27960383 12.55298147 14.04049181 15.03905714 15.80078125 17.52734375 C16.96668836 19.14247565 18.13335089 20.75706252 19.30078125 22.37109375 C32.59590495 40.90852816 44.21352603 60.33227102 54.80078125 80.52734375 C55.50050049 81.85886475 55.50050049 81.85886475 56.21435547 83.21728516 C65.71192842 101.41791935 73.82217235 120.22979439 80.98828125 139.46484375 C81.27993164 140.24561279 81.57158203 141.02638184 81.87207031 141.83081055 C82.97038021 144.85800157 83.80078125 147.28135613 83.80078125 150.52734375 C76.60297756 149.70100979 69.428855 148.82350675 62.28515625 147.609375 C-22.71172187 133.26767771 -110.93866983 142.52798263 -192.42919922 169.60888672 C-195.05837943 170.48064557 -197.6921324 171.33659933 -200.328125 172.1875 C-201.88950108 172.69606791 -203.45071067 173.2051474 -205.01171875 173.71484375 C-205.67397461 173.92834473 -206.33623047 174.1418457 -207.01855469 174.36181641 C-228.9370454 181.62224786 -250.72188314 192.15996443 -270.93798828 203.28710938 C-273.32744531 204.59767315 -275.72905523 205.88384028 -278.1328125 207.16796875 C-289.8240853 213.45276169 -301.08161175 220.28042202 -312.19921875 227.52734375 C-313.18631836 228.16687988 -313.18631836 228.16687988 -314.19335938 228.81933594 C-337.40060335 243.88850929 -359.33075604 260.73252005 -379.80078125 279.34765625 C-381.43295515 280.83096738 -383.07396793 282.30459767 -384.72265625 283.76953125 C-390.41719337 288.83328887 -395.86919006 294.08144487 -401.19921875 299.52734375 C-401.52921875 298.86734375 -401.85921875 298.20734375 -402.19921875 297.52734375 C-401.41748047 295.27856445 -401.41748047 295.27856445 -400.12890625 292.453125 C-399.65114746 291.40439209 -399.17338867 290.35565918 -398.68115234 289.27514648 C-398.15086426 288.14149658 -397.62057617 287.00784668 -397.07421875 285.83984375 C-396.5323291 284.67461182 -395.99043945 283.50937988 -395.43212891 282.30883789 C-390.37332799 271.60116359 -384.69866602 261.30110254 -378.70263672 251.09179688 C-377.31194148 248.71962039 -375.94142083 246.33721406 -374.578125 243.94921875 C-356.50384564 212.46683708 -334.22726266 183.58852842 -309.57128906 157.01269531 C-308.15567637 155.48020641 -306.75040558 153.93879858 -305.34765625 152.39453125 C-298.39081389 144.74009671 -291.36696886 137.29939063 -283.5078125 130.55859375 C-281.19748977 128.52582248 -278.95550322 126.42908337 -276.71582031 124.3190918 C-270.08203998 118.08882368 -263.16033951 112.40498999 -255.93896484 106.87304688 C-254.24539181 105.56305886 -252.57306885 104.23052612 -250.90625 102.88671875 C-209.02437299 69.19925657 -160.62827773 43.76933471 -110.19921875 25.52734375 C-109.05243652 25.1111377 -107.9056543 24.69493164 -106.72412109 24.26611328 C-74.10543982 12.57083338 -39.64295063 4.6483283 -5.20458984 0.75634766 C-3.46282315 0.55744613 -1.72974507 0.28512281 0 0 Z " fill="#004AAD" transform="translate(1204.19921875,502.47265625)"/>
</svg>
